<?xml version="1.0" encoding="UTF-8" standalone="no"?>
<svg width="172px" height="53px" viewBox="0 0 172 53" version="1.1" xmlns="http://www.w3.org/2000/svg" xmlns:xlink="http://www.w3.org/1999/xlink" xmlns:sketch="http://www.bohemiancoding.com/sketch/ns">
    <!-- Generator: Sketch 3.4 (15575) - http://www.bohemiancoding.com/sketch -->
    <title>RGB</title>
    <desc>Created with Sketch.</desc>
    <defs></defs>
    <g id="RGB" stroke="none" stroke-width="1" fill="none" fill-rule="evenodd" sketch:type="MSPage">
        <g id="iPhone-6" sketch:type="MSArtboardGroup" transform="translate(-287.000000, -583.000000)" fill="#0D1F26">
            <path d="M287.216,633.776 C289.760013,633.343998 291.583994,632.576006 292.688,631.472 C294.032007,630.223994 294.704,628.400012 294.704,626 L294.704,592.736 C294.704,590.335988 294.032007,588.608005 292.688,587.552 C291.727995,586.783996 289.928013,586.112003 287.288,585.536 L287.288,584.384 L295.856,584.312 L304.352,584.312 C311.072034,584.312 316.063984,584.887994 319.328,586.04 C324.656027,587.912009 327.32,591.607972 327.32,597.128 C327.32,600.584017 326.144012,603.391989 323.792,605.552 C321.631989,607.52001 318.776018,608.815997 315.224,609.44 C318.056014,610.160004 320.335991,612.223983 322.064,615.632 L326.096,623.624 C327.776008,626.888016 328.927997,628.999995 329.552,629.96 C331.136008,632.120011 333.031989,633.439998 335.24,633.92 L335.24,634.928 L322.928,634.928 L314.216,617.864 C311.671987,612.871975 308.43202,610.376 304.496,610.376 L302.552,610.376 L302.552,625.64 C302.552,628.040012 303.223993,630.007992 304.568,631.544 C305.240003,632.312004 306.031995,632.899998 306.944,633.308 C307.856005,633.716002 308.911994,633.92 310.112,633.92 L310.112,634.928 L287.216,634.928 L287.216,633.776 L287.216,633.776 Z M305.864,609.224 C309.80002,609.224 312.979988,608.20401 315.404,606.164 C317.828012,604.12399 319.04,601.13602 319.04,597.2 C319.04,593.887983 317.936011,591.176011 315.728,589.064 C313.519989,586.951989 310.736017,585.896 307.376,585.896 L305.288,585.824 L303.272,585.752 L302.48,585.752 L302.408,609.08 L305.864,609.224 L305.864,609.224 Z M391.608,584.24 L392.184,600.44 L391.248,600.584 C390.383996,596.311979 388.656013,592.664015 386.064,589.64 C383.087985,586.231983 379.56002,584.528 375.48,584.528 C369.623971,584.528 364.848018,587.311972 361.152,592.88 C357.935984,597.872025 356.328,603.41597 356.328,609.512 C356.328,615.60803 357.623987,621.079976 360.216,625.928 C363.336016,631.83203 367.703972,634.784 373.32,634.784 C376.536016,634.784 379.283989,633.80001 381.564,631.832 C383.844011,629.86399 384.984,627.320016 384.984,624.2 C384.984,619.255975 382.176028,616.784 376.56,616.784 L376.56,615.632 L400.32,615.632 L400.248,616.568 L399.816,616.64 L399.384,616.712 C396.983988,617.048002 395.304005,617.839994 394.344,619.088 C393.383995,620.336006 392.904,622.255987 392.904,624.848 L392.976,628.016 L393.12,631.184 L391.176,630.824 C390.839998,630.824 389.400013,631.495993 386.856,632.84 C382.87198,634.952011 378.096028,636.008 372.528,636.008 C364.991962,636.008 358.908023,633.788022 354.276,629.348 C349.643977,624.907978 347.328,618.944037 347.328,611.456 C347.328,603.39196 349.751976,596.684027 354.6,591.332 C359.448024,585.979973 365.90396,583.304 373.968,583.304 C376.320012,583.304 379.583979,584.023993 383.76,585.464 C386.208012,586.328004 387.743997,586.76 388.368,586.76 C389.472006,586.76 390.167999,585.920008 390.456,584.24 L391.608,584.24 L391.608,584.24 Z M412.912,633.704 C416.224017,633.127997 418.383995,631.976009 419.392,630.248 C420.112004,628.999994 420.472,626.552018 420.472,622.904 L420.472,594.608 C420.472,591.727986 419.944005,589.592007 418.888,588.2 C417.639994,586.471991 415.672013,585.608 412.984,585.608 L412.984,584.384 L440.416,584.384 C444.112018,584.384 447.219987,585.37999 449.74,587.372 C452.260013,589.36401 453.52,592.183982 453.52,595.832 C453.52,601.112026 450.52003,604.927988 444.52,607.28 C448.984022,608.144004 452.319989,609.60799 454.528,611.672 C456.976012,613.976012 458.2,617.359978 458.2,621.824 C458.2,626.288022 456.592016,629.671988 453.376,631.976 C450.543986,633.94401 446.800023,634.928 442.144,634.928 L412.912,634.928 L412.912,633.704 L412.912,633.704 Z M428.248,608.432 L428.248,625.208 C428.248,630.872028 430.959973,633.704 436.384,633.704 C439.840017,633.704 442.791988,632.624011 445.24,630.464 C447.688012,628.303989 448.912,625.496017 448.912,622.04 C448.912,618.10398 447.88001,614.888012 445.816,612.392 C443.559989,609.751987 440.488019,608.432 436.6,608.432 L428.248,608.432 L428.248,608.432 Z M432.136,607.28 C440.680043,607.28 444.952,603.680036 444.952,596.48 C444.952,589.087963 440.680043,585.392 432.136,585.392 L430.192,585.392 L428.248,585.464 L428.248,607.28 L432.136,607.28 L432.136,607.28 Z" id="RGB" sketch:type="MSShapeGroup"></path>
        </g>
    </g>
</svg>